<svg xmlns="http://www.w3.org/2000/svg" width="1200" height="630" viewBox="0 0 1200 630">
  <defs>
    <linearGradient id="bg" x1="0%" y1="0%" x2="100%" y2="100%">
      <stop offset="0%" stop-color="#87AB87"/>
      <stop offset="100%" stop-color="#6B8F6B"/>
    </linearGradient>
    <linearGradient id="chartFill" x1="0" y1="0" x2="0" y2="1">
      <stop offset="0%" stop-color="rgba(255,255,255,0.15)"/>
      <stop offset="100%" stop-color="rgba(255,255,255,0)"/>
    </linearGradient>
  </defs>
  <rect width="1200" height="630" fill="url(#bg)"/>
  <circle cx="950" cy="150" r="280" fill="rgba(255,255,255,0.03)"/>
  <circle cx="300" cy="500" r="200" fill="rgba(255,255,255,0.03)"/>
  <path d="M80 520 L220 440 L360 460 L500 350 L630 370 L770 250 L900 270 L1020 160 L1120 180" stroke="white" stroke-width="5" stroke-linecap="round" stroke-linejoin="round" fill="none" opacity="0.9"/>
  <path d="M80 520 L220 440 L360 460 L500 350 L630 370 L770 250 L900 270 L1020 160 L1120 180 L1120 520 Z" fill="url(#chartFill)"/>
  <text x="80" y="350" font-family="system-ui, -apple-system, sans-serif" font-size="58" font-weight="700" fill="white" letter-spacing="-1">DaamTrackBD</text>
  <text x="82" y="410" font-family="system-ui, -apple-system, sans-serif" font-size="22" font-weight="400" fill="rgba(255,255,255,0.85)" letter-spacing="0.3">Bangladesh Commodity Price Tracker</text>
  <text x="82" y="445" font-family="system-ui, -apple-system, sans-serif" font-size="16" font-weight="400" fill="rgba(255,255,255,0.55)">Track prices of rice, oil, lentils, sugar &amp; more</text>
</svg>
